<?xml version="1.0" standalone="no"?>
<!DOCTYPE svg PUBLIC "-//W3C//DTD SVG 20010904//EN"
 "http://www.w3.org/TR/2001/REC-SVG-20010904/DTD/svg10.dtd">
<svg version="1.0" xmlns="http://www.w3.org/2000/svg"
 width="960.000000pt" height="960.000000pt" viewBox="0 0 960.000000 960.000000"
 preserveAspectRatio="xMidYMid meet">
<metadata>
Created by potrace 1.11, written by Peter Selinger 2001-2013
</metadata>
<g transform="translate(0.000000,960.000000) scale(0.100000,-0.100000)"
fill="#000000" stroke="none">
<path d="M4455 9589 c-1702 -121 -3219 -1146 -3970 -2684 -648 -1328 -648
-2872 0 -4200 661 -1355 1924 -2323 3403 -2609 782 -152 1627 -100 2382 146
1663 541 2903 1942 3234 3656 152 782 100 1627 -146 2382 -541 1663 -1942
2903 -3656 3234 -383 75 -853 103 -1247 75z m783 -354 c1256 -131 2381 -772
3137 -1790 475 -638 762 -1382 851 -2205 24 -212 24 -658 0 -870 -114 -1052
-553 -1976 -1286 -2710 -734 -733 -1658 -1172 -2710 -1286 -212 -24 -658 -24
-870 0 -1052 114 -1977 554 -2710 1286 -732 733 -1172 1658 -1286 2710 -24
212 -24 658 0 870 133 1223 714 2288 1660 3044 729 583 1617 919 2561 970 132
7 506 -4 653 -19z"/>
<path d="M4555 8399 c-1192 -75 -2282 -757 -2885 -1804 -635 -1101 -635 -2479
0 -3580 553 -962 1516 -1617 2605 -1774 338 -49 706 -49 1042 0 1570 228 2816
1475 3042 3044 49 338 49 706 0 1042 -228 1570 -1476 2817 -3044 3042 -255 37
-498 46 -760 30z m600 -359 c1105 -131 2056 -794 2549 -1777 170 -341 268
-662 323 -1063 12 -92 17 -195 17 -395 0 -281 -10 -396 -55 -625 -253 -1295
-1274 -2316 -2569 -2569 -229 -45 -344 -55 -625 -55 -281 0 -396 10 -625 55
-983 192 -1825 831 -2279 1728 -175 345 -284 711 -333 1116 -16 129 -16 571 0
700 87 712 369 1333 845 1855 519 569 1282 954 2042 1030 55 5 118 12 140 14
71 7 477 -2 570 -14z"/>
</g>
</svg>
