<?xml version="1.0" encoding="UTF-8" standalone="no"?>
<svg width="321px" height="224px" viewBox="0 0 321 224" version="1.1" xmlns="http://www.w3.org/2000/svg" xmlns:xlink="http://www.w3.org/1999/xlink">
    <!-- Generator: sketchtool 3.8.3 (29802) - http://www.bohemiancoding.com/sketch -->
    <title>8BB1BBCB-CFC2-4878-9137-4BD696AEECDF</title>
    <desc>Created with sketchtool.</desc>
    <defs>
        <polygon id="path-1" points="320.786832 224 0 224 0 0.0005 320.786832 0.0005 320.786832 224"></polygon>
    </defs>
    <g id="Dialogue-Reception" stroke="none" stroke-width="1" fill="none" fill-rule="evenodd">
        <g id="404" transform="translate(-224.000000, -203.000000)">
            <g id="Page-1" transform="translate(224.000000, 203.000000)">
                <mask id="mask-2" fill="white">
                    <use xlink:href="#path-1"></use>
                </mask>
                <g id="Clip-2"></g>
                <path d="M205.2676,162.8975 L195.4756,152.5555 L183.2866,165.4295 L171.7996,153.2985 L160.3286,165.4135 L148.5716,152.9975 L136.8506,165.3765 L124.8246,152.6745 L112.6236,165.5605 L100.8366,153.1125 L90.8156,163.6965 L87.1846,160.2585 L100.8366,145.8405 L112.6236,158.2895 L124.8246,145.4035 L136.8506,158.1045 L148.5716,145.7255 L160.3286,158.1415 L171.7996,146.0275 L183.2866,158.1585 L195.4756,145.2845 L208.8986,159.4595 L205.2676,162.8975 Z M115.1916,94.2605 C120.0176,94.2605 123.9296,98.1725 123.9296,102.9985 C123.9296,107.8235 120.0176,111.7355 115.1916,111.7355 C110.3656,111.7355 106.4536,107.8235 106.4536,102.9985 C106.4536,98.1725 110.3656,94.2605 115.1916,94.2605 L115.1916,94.2605 Z M178.8016,90.7175 C185.5846,90.7175 191.0826,96.2155 191.0826,102.9985 C191.0826,109.7805 185.5846,115.2795 178.8016,115.2795 C172.0196,115.2795 166.5206,109.7805 166.5206,102.9985 C166.5206,96.2155 172.0196,90.7175 178.8016,90.7175 L178.8016,90.7175 Z M306.1416,79.0005 L278.9996,79.0005 L278.9996,108.0005 L259.6896,108.0005 L219.6516,42.0005 L158.9996,42.0005 L158.9996,19.0005 L202.9996,19.0005 L202.9996,0.0005 L88.9996,0.0005 L88.9996,19.0005 L132.9996,19.0005 L132.9996,42.0005 L79.5666,42.0005 L51.1396,73.0005 L32.9996,73.0005 L32.9996,108.0005 L18.9996,108.0005 L18.9996,65.0005 L-0.0004,65.0005 L-0.0004,179.0005 L18.9996,179.0005 L18.9996,140.0005 L32.9996,140.0005 L32.9996,164.0005 L51.5416,164.0005 L105.1516,224.0005 L262.9996,224.0005 L262.9996,191.0005 L278.9996,191.0005 L278.9996,224.0005 L306.1456,224.0005 C306.1456,224.0005 320.7666,220.3405 320.7666,151.5065 C320.7636,151.5095 321.9736,79.0005 306.1416,79.0005 L306.1416,79.0005 Z" id="Fill-1" fill="#BDC3C6" mask="url(#mask-2)"></path>
            </g>
        </g>
    </g>
</svg>