<?xml version="1.0" encoding="UTF-8" standalone="no"?>
<svg width="273px" height="223px" viewBox="0 0 273 223" version="1.1" xmlns="http://www.w3.org/2000/svg" xmlns:xlink="http://www.w3.org/1999/xlink">
    <!-- Generator: sketchtool 3.8.3 (29802) - http://www.bohemiancoding.com/sketch -->
    <title>C45C35C7-A90C-4E67-B610-A51258C74D0B</title>
    <desc>Created with sketchtool.</desc>
    <defs></defs>
    <g id="Dialogue-Reception" stroke="none" stroke-width="1" fill="none" fill-rule="evenodd">
        <g id="500" transform="translate(-249.000000, -208.000000)" fill="#BDC3C6">
            <path d="M491.22386,324.621093 C496.807224,336.2531 494.015542,346.489267 494.015542,346.489267 L459.11952,352.53791 L441.90415,349.746229 L447.952793,335.78782 C448.418074,335.78782 486.105777,312.989086 491.22386,324.621093 L491.22386,324.621093 Z M384.209394,353.468471 C377.69547,353.468471 372.577386,348.350388 372.577386,341.836464 C372.577386,335.32254 377.69547,330.204457 384.209394,330.204457 C390.723318,330.204457 395.841401,335.32254 395.841401,341.836464 C395.376121,348.350388 390.258037,353.468471 384.209394,353.468471 L384.209394,353.468471 Z M308.368706,352.53791 L273.472685,346.489267 C273.472685,346.489267 271.146283,336.2531 276.264367,324.621093 C281.84773,312.989086 319.070153,335.32254 319.070153,335.32254 L325.118797,349.280948 L308.368706,352.53791 Z M305.111744,282.280587 L322.327115,248.780406 C328.375759,247.384565 346.05641,245.058164 384.674674,245.058164 C420.966536,245.058164 440.973589,246.919285 447.487513,248.780406 L464.702884,282.280587 C466.098725,285.072268 464.237603,287.86395 461.445922,287.86395 L308.368706,287.86395 C305.577025,287.86395 303.715904,285.072268 305.111744,282.280587 L305.111744,282.280587 Z M512.626753,282.280587 C512.626753,273.440261 493.084981,271.11386 488.897459,272.509701 C486.105777,273.440261 485.640497,278.093064 486.105777,281.350026 C485.175216,279.954185 484.709936,278.558344 484.244656,278.093064 L462.841763,237.613679 C462.376482,236.683118 461.911202,235.752558 460.980641,235.287278 C458.18896,232.495596 452.140316,226.912232 384.674674,226.912232 C317.674312,226.912232 311.625669,232.495596 308.833987,235.287278 C307.903426,236.217838 307.438146,236.683118 306.972866,237.613679 L286.035253,278.558344 L281.84773,286.002829 C282.31301,282.745867 282.31301,276.231943 279.056048,275.301382 C274.868526,273.905542 255.326753,276.697223 255.326753,285.072268 C255.326753,294.843155 277.194927,293.912594 277.194927,293.912594 L277.660207,293.912594 L276.264367,295.773715 C273.937965,299.495957 272.076844,301.822359 269.750442,305.079321 C260.910117,317.641889 259.979556,324.155813 259.979556,324.155813 C259.979556,324.155813 258.583716,376.267205 259.048996,377.197766 L259.048996,417.211871 C259.048996,421.864674 262.771238,425.586916 267.424041,425.586916 L286.965813,425.586916 C291.618616,425.586916 295.340858,421.864674 295.340858,417.211871 L295.340858,401.857621 L295.806139,401.857621 L475.40433,401.857621 L476.334891,401.857621 L476.334891,417.211871 C476.334891,421.864674 480.057133,425.586916 484.709936,425.586916 L507.973951,425.586916 C510.765632,425.586916 512.626753,423.260514 512.626753,420.934113 L512.626753,376.732485 L511.230913,324.621093 C511.230913,324.621093 510.300352,318.572449 501.460027,305.544601 C499.133625,302.287639 497.272504,299.961238 494.946102,296.238995 C494.946102,296.238995 493.550262,293.912594 492.154421,291.120912 C494.946102,291.120912 512.626753,291.120912 512.626753,282.280587 L512.626753,282.280587 Z" id="Page-1" transform="translate(383.976753, 326.249574) rotate(-171.000000) translate(-383.976753, -326.249574) "></path>
        </g>
    </g>
</svg>