<?xml version="1.0" encoding="UTF-8"?>
<svg width="16.98px" height="14.95px" viewBox="0 0 489 433" version="1.1" xmlns="http://www.w3.org/2000/svg" xmlns:xlink="http://www.w3.org/1999/xlink">
    <!-- Generator: Sketch 40.1 (33804) - http://www.bohemiancoding.com/sketch -->
    <title>Attention Icon</title>
    <desc>Created with Sketch.</desc>
    <defs></defs>
    <g id="Page-1" stroke="none" stroke-width="1" fill="none" fill-rule="evenodd">
        <g id="Attention-Icon" fill="#FFFFFF">
            <g id="Capa_1">
                <path d="M484.125,384.013 L271.925,16.413 C259.625,-4.887 228.825,-4.887 216.525,16.413 L4.325,384.013 C-7.975,405.313 7.425,432.013 32.025,432.013 L456.425,432.013 C481.025,432.013 496.425,405.313 484.125,384.013 L484.125,384.013 Z M244.525,129.613 C258.125,129.613 269.125,140.913 268.725,154.513 L264.725,294.113 C264.425,305.113 255.425,313.813 244.425,313.813 C233.425,313.813 224.425,305.013 224.125,294.113 L220.225,154.513 C219.925,140.913 230.825,129.613 244.525,129.613 L244.525,129.613 Z M244.225,382.113 C230.325,382.113 219.025,370.813 219.025,356.913 C219.025,343.013 230.325,331.713 244.225,331.713 C258.125,331.713 269.425,343.013 269.425,356.913 C269.425,370.813 258.125,382.113 244.225,382.113 L244.225,382.113 Z" id="Shape"></path>
            </g>
        </g>
    </g>
</svg>