<?xml version="1.0" encoding="UTF-8"?>
<svg width="20px" height="20px" viewBox="0 0 33 41" version="1.1" xmlns="http://www.w3.org/2000/svg" xmlns:xlink="http://www.w3.org/1999/xlink">
    <!-- Generator: Sketch 40.1 (33804) - http://www.bohemiancoding.com/sketch -->
    <title>Shape</title>
    <desc>Created with Sketch.</desc>
    <defs></defs>
    <g id="Page-1" stroke="none" stroke-width="1" fill="none" fill-rule="evenodd">
        <path d="M32.3707412,31.1470317 C30.311828,29.2988399 29.155538,26.6644603 29.155538,23.938142 L29.155538,20.181662 C29.155538,14.678347 25.6584331,9.99530446 20.7585423,8.23232416 C21.3573033,7.38334892 21.7100165,6.34870238 21.7100165,5.23243223 C21.708672,2.34690305 19.3633753,0 16.4807175,0 C13.5971634,0 11.2518667,2.34690305 11.2518667,5.23243223 C11.2518667,6.34915086 11.6041318,7.38334892 12.203341,8.23232416 C7.30255381,9.99530446 3.78214383,14.678347 3.78214383,20.181662 L3.78214383,23.9188573 C3.78214383,26.6868844 2.58686269,29.3351669 0.502851687,31.1842556 C0.182855159,31.4672474 0,31.8744685 0,32.3018712 L0,35.1308917 C0,35.956546 0.668676218,36.6261287 1.4937653,36.6261287 L11.4719203,36.6261287 C12.1172915,38.784221 14.1165975,40.363324 16.4807175,40.363324 C18.8439412,40.363324 20.8441436,38.784221 21.4890665,36.6261287 L31.3722086,36.6261287 C32.1972977,36.6261287 32.8664221,35.956546 32.8664221,35.1308917 L32.8664221,32.2601624 C32.8664221,31.8341051 32.6867041,31.4300234 32.3707412,31.1470317 L32.3707412,31.1470317 Z M16.4807175,2.99002534 C17.7163344,2.99002534 18.7215896,3.99596907 18.7215896,5.23243223 C18.7215896,6.46889539 17.7167825,7.47483912 16.4807175,7.47483912 C15.2446525,7.47483912 14.2398455,6.46889539 14.2398455,5.23243223 C14.2398455,3.99596907 15.2451007,2.99002534 16.4807175,2.99002534 L16.4807175,2.99002534 Z M16.4807175,37.3732986 C15.8205566,37.3732986 15.2325518,37.0822342 14.8224722,36.6261287 L18.1380665,36.6261287 C17.7279869,37.0822342 17.1408784,37.3732986 16.4807175,37.3732986 L16.4807175,37.3732986 Z M29.8784433,33.6361033 L2.98797878,33.6361033 L2.98797878,32.9503753 C5.39960528,30.5662483 6.77012262,27.3129644 6.77012262,23.9188573 L6.77012262,20.181662 C6.77012262,14.823655 11.1259297,10.464416 16.4807175,10.464416 C21.8350572,10.464416 26.1680074,14.8232065 26.1680074,20.1623773 L26.1680074,23.9184088 C26.1680074,27.2842616 27.4968445,30.5214001 29.8784433,32.9010423 L29.8784433,33.6361033 L29.8784433,33.6361033 Z" id="Shape" fill="#FFFFFF"></path>
    </g>
</svg>