<?xml version="1.0" encoding="utf-8"?>
<!-- Generator: Adobe Illustrator 19.2.1, SVG Export Plug-In . SVG Version: 6.00 Build 0)  -->
<svg version="1.1" id="Layer_1" xmlns="http://www.w3.org/2000/svg" xmlns:xlink="http://www.w3.org/1999/xlink" x="0px" y="0px"
	 viewBox="0 0 277 402" style="enable-background:new 0 0 277 402;" xml:space="preserve">
<style type="text/css">
	.st0{fill:#DEE1E3;}
	.st1{fill:#F3F5F6;}
	.st2{fill:#FFFFFF;}
</style>
<g>
	<g id="XMLID_1_">
		<g>
			<path class="st0" d="M249.7,67.9c11.7,0,21.2,9.5,21.2,21.2c0,11.7-9.5,21.2-21.2,21.2c-11.7,0-21.1-9.5-21.1-21.2
				C228.6,77.4,238.1,67.9,249.7,67.9z M260.3,100c3-2.7,4.6-6.4,4.6-10.9c0-4.5-1.6-8.3-4.6-10.9c-0.2-0.2-0.5-0.2-0.7,0
				c-0.2,0.2-0.2,0.5,0,0.7c2.8,2.5,4.2,6,4.2,10.2c0,4.2-1.5,7.7-4.2,10.2c-0.2,0.2-0.2,0.5,0,0.7c0.1,0.1,0.2,0.2,0.4,0.2
				C260,100.1,260.2,100.1,260.3,100z M240.3,78.8c0.2-0.2,0.2-0.5,0-0.7c-0.2-0.2-0.5-0.2-0.7,0c-3.1,2.8-4.8,6.7-4.8,11.1
				c0,4.4,1.7,8.3,4.8,11.1c0.1,0.1,0.2,0.1,0.3,0.1c0.1,0,0.3-0.1,0.4-0.2c0.2-0.2,0.2-0.5,0-0.7c-2.9-2.6-4.4-6.2-4.4-10.3
				C235.8,85,237.4,81.3,240.3,78.8z"/>
			<path class="st0" d="M249.7,247.9c11.7,0,21.2,9.5,21.2,21.2c0,11.7-9.5,21.2-21.2,21.2c-1.9,0-3.7-0.2-5.5-0.7
				c0,0-0.1-0.1-0.1-0.1c-0.1-0.1-0.2-0.1-0.3,0c0,0,0,0,0,0c-8.8-2.6-15.2-10.7-15.2-20.3C228.6,257.4,238.1,247.9,249.7,247.9z
				 M260.3,280c3-2.7,4.6-6.4,4.6-10.9c0-4.5-1.6-8.3-4.6-10.9c-0.2-0.2-0.5-0.2-0.7,0c-0.2,0.2-0.2,0.5,0,0.7
				c2.8,2.5,4.2,6,4.2,10.2s-1.5,7.7-4.2,10.2c-0.2,0.2-0.2,0.5,0,0.7c0.1,0.1,0.2,0.2,0.4,0.2C260,280.1,260.2,280.1,260.3,280z
				 M240.3,258.8c0.2-0.2,0.2-0.5,0-0.7c-0.2-0.2-0.5-0.2-0.7,0c-3.1,2.8-4.8,6.7-4.8,11.1c0,4.4,1.7,8.3,4.8,11.1
				c0.1,0.1,0.2,0.1,0.3,0.1c0.1,0,0.3-0.1,0.4-0.2c0.2-0.2,0.2-0.5,0-0.7c-2.9-2.6-4.4-6.2-4.4-10.3
				C235.8,265,237.4,261.3,240.3,258.8z"/>
			<path d="M264.8,89c0,4.5-1.6,8.3-4.6,10.9c-0.1,0.1-0.2,0.1-0.3,0.1c-0.1,0-0.3-0.1-0.4-0.2c-0.2-0.2-0.2-0.5,0-0.7
				c2.8-2.5,4.2-6,4.2-10.2c0-4.2-1.5-7.7-4.2-10.2c-0.2-0.2-0.2-0.5,0-0.7c0.2-0.2,0.5-0.2,0.7,0C263.2,80.8,264.8,84.6,264.8,89z"
				/>
			<path d="M264.8,269c0,4.5-1.6,8.3-4.6,10.9c-0.1,0.1-0.2,0.1-0.3,0.1c-0.1,0-0.3-0.1-0.4-0.2c-0.2-0.2-0.2-0.5,0-0.7
				c2.8-2.5,4.2-6,4.2-10.2s-1.5-7.7-4.2-10.2c-0.2-0.2-0.2-0.5,0-0.7c0.2-0.2,0.5-0.2,0.7,0C263.2,260.8,264.8,264.6,264.8,269z"/>
			<path d="M256,247.9c-0.1,0.2-0.2,0.4-0.5,0.4c-0.3,0-0.5-0.2-0.5-0.5v-0.1C255.4,247.7,255.7,247.8,256,247.9z"/>
			<path d="M251.5,111.1l0.1,0.1c-0.3,0-0.6,0-0.9,0.1c0,0,0-0.1,0.1-0.1C251,110.9,251.3,110.9,251.5,111.1z"/>
			<path d="M251.5,193.2c0.3,0,0.5,0.2,0.6,0.4c0,0,0,0,0,0.1c0,0.2-0.2,0.5-0.4,0.5l-79.2,8.3c0-0.3,0-0.7,0-1L251.5,193.2z"/>
			<path d="M256.1,115.2v132.6c0,0,0,0.1,0,0.1c-0.3-0.1-0.7-0.2-1-0.3v-15.1V115.6l-4.2-3.8c-0.2-0.2-0.2-0.4-0.1-0.6
				c0.3,0,0.6,0,0.9-0.1L256.1,115.2z"/>
			<path class="st1" d="M255.1,115.6v116.9h-2c0-0.1,0-0.1,0-0.2V121.7h-46.9l-0.1,0.2c-0.1,0.1-1.4,1.5-3.6,4.1
				c-7.4,9-19.6,24.8-22.4,34.2l-2.8-0.8c0.9-3.3,2-6.4,3.2-9.2l21.8-31.1l0.1-0.1l12.4-68.3l24.5,0c0.5,0.1,11.2,2.2,8.8,16.2
				c0,0,0,0,0,0c-11.5,0.8-20.6,10.4-20.6,22.1c0,12.2,9.9,22.2,22.1,22.2c0.3,0,0.7,0,1,0c-0.1,0.2-0.1,0.4,0.1,0.6L255.1,115.6z"
				/>
			<path d="M249.2,67.1c-0.1,0.3-0.3,0.5-0.6,0.4c-0.3,0-0.4-0.3-0.4-0.5c0.3,0,0.7-0.1,1-0.1C249.2,67,249.2,67.1,249.2,67.1z"/>
			<path d="M244.3,289.5c0.2,0.1,0.2,0.4,0.1,0.6l-0.2,0.4c-0.3-0.1-0.7-0.2-1-0.3l0.3-0.6c0.1-0.1,0.2-0.2,0.3-0.2c0,0,0,0,0,0
				C244,289.4,244.1,289.5,244.3,289.5z"/>
			<path d="M244.3,289.5c-0.2,0-0.3-0.1-0.5-0.1c0.1,0,0.2,0,0.3,0C244.2,289.5,244.2,289.5,244.3,289.5z"/>
			<path d="M239.6,100.2c-3.1-2.8-4.8-6.7-4.8-11.1c0-4.4,1.7-8.3,4.8-11.1c0.2-0.2,0.5-0.2,0.7,0c0.2,0.2,0.2,0.5,0,0.7
				c-2.9,2.6-4.4,6.2-4.4,10.3c0,4.1,1.6,7.8,4.4,10.3c0.2,0.2,0.2,0.5,0,0.7c-0.1,0.1-0.2,0.2-0.4,0.2
				C239.8,100.3,239.7,100.2,239.6,100.2z"/>
			<path d="M239.6,280.2c-3.1-2.8-4.8-6.7-4.8-11.1c0-4.4,1.7-8.3,4.8-11.1c0.2-0.2,0.5-0.2,0.7,0c0.2,0.2,0.2,0.5,0,0.7
				c-2.9,2.6-4.4,6.2-4.4,10.3c0,4.1,1.6,7.8,4.4,10.3c0.2,0.2,0.2,0.5,0,0.7c-0.1,0.1-0.2,0.2-0.4,0.2
				C239.8,280.3,239.7,280.2,239.6,280.2z"/>
			<path d="M270.9,89.1c0-11.7-9.5-21.2-21.2-21.2c-11.7,0-21.1,9.5-21.1,21.2c0,11.7,9.5,21.2,21.1,21.2
				C261.4,110.2,270.9,100.8,270.9,89.1z M249.7,66.9c12.2,0,22.2,9.9,22.2,22.2c0,11.6-8.9,21.1-20.3,22.1l-0.1-0.1
				c-0.2-0.2-0.5-0.2-0.7,0c0,0-0.1,0.1-0.1,0.1c-0.3,0-0.7,0-1,0c-12.2,0-22.1-9.9-22.1-22.2c0-11.7,9.1-21.3,20.6-22.1
				c0,0.3,0.1,0.5,0.4,0.5c0.3,0.1,0.5-0.1,0.6-0.4c0-0.1,0-0.1,0-0.2C249.4,66.9,249.6,66.9,249.7,66.9z"/>
			<path d="M256,247.9c9.2,2.7,15.8,11.2,15.8,21.2c0,12.2-9.9,22.2-22.2,22.2c-1.9,0-3.8-0.2-5.6-0.7l0.2-0.4
				c0.1-0.2,0.1-0.4-0.1-0.6c1.7,0.5,3.6,0.7,5.5,0.7c11.7,0,21.2-9.5,21.2-21.2c0-11.7-9.5-21.2-21.2-21.2
				c-11.7,0-21.1,9.5-21.1,21.2c0,9.6,6.4,17.7,15.2,20.3c-0.1,0-0.2,0.1-0.3,0.2l-0.3,0.6c-9-2.8-15.6-11.2-15.6-21.2
				c0-12.2,9.9-22.2,22.1-22.2c1.8,0,3.6,0.2,5.3,0.7v0.1c0,0.3,0.2,0.5,0.5,0.5C255.8,248.2,256,248.1,256,247.9z"/>
			<path d="M227.1,49.7h1c0,0.3-0.2,0.5-0.5,0.5S227.1,50,227.1,49.7z"/>
			<path class="st0" d="M227.1,39.3v10.5h-11v-9.1C217.1,40.1,221.3,37.8,227.1,39.3z"/>
			<path d="M228.1,38.5v11.2h-1V39.3c-5.7-1.5-10,0.8-11,1.4v9.1h-1v-9.6l0.2-0.2c0.2-0.1,5.3-3.6,12.4-1.6L228.1,38.5z"/>
			<path d="M215.1,49.7h1c0,0.3-0.2,0.5-0.5,0.5S215.1,50,215.1,49.7z"/>
			<path class="st0" d="M212.6,182.7c0.9,0,1.8,2,1.8,4.7s-1,4.7-1.8,4.7c-0.8,0-1.8-2-1.8-4.7S211.8,182.7,212.6,182.7z"/>
			<path class="st0" d="M212.6,243.8c0.9,0,1.8,2,1.8,4.7s-1,4.7-1.8,4.7c-0.8,0-1.8-2-1.8-4.7S211.8,243.8,212.6,243.8z"/>
			<path d="M214.4,187.4c0-2.7-1-4.7-1.8-4.7c-0.8,0-1.8,2-1.8,4.7s1,4.7,1.8,4.7C213.5,192,214.4,190,214.4,187.4z M215.4,187.4
				c0,3.2-1.2,5.7-2.8,5.7c-1.6,0-2.8-2.4-2.8-5.7s1.2-5.7,2.8-5.7C214.2,181.7,215.4,184.1,215.4,187.4z"/>
			<path d="M214.4,248.4c0-2.7-1-4.7-1.8-4.7c-0.8,0-1.8,2-1.8,4.7s1,4.7,1.8,4.7C213.5,253.1,214.4,251.1,214.4,248.4z
				 M212.6,242.8c1.6,0,2.8,2.4,2.8,5.7s-1.2,5.7-2.8,5.7c-1.6,0-2.8-2.4-2.8-5.7S211,242.8,212.6,242.8z"/>
			<path class="st1" d="M212.6,254.1c1.6,0,2.8-2.4,2.8-5.7s-1.2-5.7-2.8-5.7c-1.6,0-2.8,2.4-2.8,5.7S211,254.1,212.6,254.1z
				 M252.1,193.7v38.7l0,0l0,0.1c0,0.3,0.2,6.4-44.4,26.7c-1.6,0.8-4.3,1.9-5.6,2v-56.3l-24,2.1v36c-0.1,0-0.3,0-0.4,0.1
				c-0.2,0.1-0.3,0.4-0.2,0.7l17.3,29l0.2,0.3l7.1-2.2v-8.6c2-0.1,5.6-1.9,6.1-2.1c42.1-19.2,45-26.1,45-27.6h2v15.1
				c-1.7-0.4-3.5-0.7-5.3-0.7c-12.2,0-22.1,9.9-22.1,22.2c0,9.9,6.6,18.4,15.6,21.2l-9.2,17.1l0.1,0.2c0,0,0.4,1.2-0.5,2.4
				c-1.3,1.7-5.1,3.5-15.9,2.7l-0.5,0l-0.1,0.5c0,0-0.2,1.6-2,2.7c-2.1,1.2-6.6,1.6-16-2.7v-20.6v-0.2l-0.2-0.2
				c-0.1-0.1-9.4-8.9-24.2-45.7c-0.2-1.3-2.6-21.1-2.3-43.8l79.2-8.3C251.9,194.2,252,194,252.1,193.7L252.1,193.7z"/>
			<path class="st1" d="M252.1,122.7v71h0c0,0,0,0,0-0.1c0-0.3-0.3-0.5-0.6-0.4l-79.1,8.2c0.2-14.2,1.5-29.5,5-42.1l2.8,0.8
				c-0.2,0.6-0.3,1.2-0.4,1.8l-2,34l23.6-2.7l2.7-66.1c0-0.3-0.2-0.5-0.5-0.5c-0.2,0-0.3,0.1-0.4,0.2l0,0c0.1-0.1,0.1-0.2,0.2-0.2
				c1.7-2.1,2.9-3.4,3.3-3.8H252.1z M215.4,187.4c0-3.2-1.2-5.7-2.8-5.7c-1.6,0-2.8,2.4-2.8,5.7s1.2,5.7,2.8,5.7
				C214.2,193,215.4,190.6,215.4,187.4z"/>
			<path d="M199.6,362.1c0,0,0-0.1,0-0.1C199.6,362,199.6,362.1,199.6,362.1z"/>
			<path d="M199.5,361.9C199.5,361.8,199.5,361.8,199.5,361.9C199.5,361.8,199.5,361.9,199.5,361.9z"/>
			<path d="M199.4,361.7C199.4,361.7,199.4,361.8,199.4,361.7C199.4,361.8,199.4,361.7,199.4,361.7z"/>
			<rect x="78.1" y="362.6" class="st0" width="120.5" height="7.2"/>
			<polygon class="st0" points="197,361.6 79.6,361.6 87.7,357.4 189,357.4 			"/>
			<rect x="83.6" y="385.9" width="109.4" height="0.3"/>
			<rect x="83.6" y="384.9" width="109.4" height="0.3"/>
			<rect x="83.6" y="379.1" class="st1" width="109.4" height="5.8"/>
			<path class="st0" d="M191.1,7.4v10.4h-105V7.4c0-1.3,2-2.6,4.9-2.6H114c0.2,0,0.4-0.2,0.5-0.4c0.2-0.8,1-1.6,2.1-1.6h43.8
				c1,0,1.9,0.8,2.1,1.6c0,0.2,0.2,0.4,0.5,0.4H186C189,4.7,191.1,6.1,191.1,7.4z"/>
			<path d="M189.1,117.1c0,0.1,0,0.1,0,0.2c-0.1,0.2-0.3,0.3-0.5,0.3c-0.2,0-0.3-0.1-0.4-0.2c-0.1-0.1-0.1-0.2-0.1-0.3v-0.6l0.6,0.1
				c0.1,0,0.3,0.1,0.4,0.2C189,116.9,189.1,117,189.1,117.1z"/>
			<path class="st1" d="M188.1,110.5v6l-49.7-7.5c-0.1,0-0.1,0-0.1,0l-49.7,7.5v-6l49.7-7.5L188.1,110.5z"/>
			<polygon class="st2" points="187.9,117.5 177.2,153.8 138.3,153.7 99.5,153.8 88.7,117.5 138.3,110 			"/>
			<path d="M201.1,262c-6.3-1.5-17.6-12.8-21.5-16.9l15.9,26.6l5.6-1.8V262z M179.1,243.2c1.5,1.6,15.1,15.9,22,17.8v-55.1l-22,1.9
				V243.2z M253.1,121.7v110.6c0,0,0,0.1,0,0.2c0,1.5-2.8,8.4-45,27.6c-0.4,0.2-4.1,1.9-6.1,2.1v8.6L195,273l-0.2-0.3l-17.3-29
				c-0.1-0.2-0.1-0.5,0.2-0.7c0.1-0.1,0.3-0.1,0.4-0.1v-36l24-2.1v56.3c1.3-0.1,4-1.2,5.6-2c44.6-20.3,44.4-26.4,44.4-26.7l0-0.1
				l0,0v-38.7v-71h-45.4c-0.4,0.4-1.6,1.8-3.3,3.8c-0.1,0.1-0.1,0.2-0.2,0.2c-7.8,9.6-20.9,26.6-22.4,35.2l-1.9,32.8l21.6-2.5
				l2.6-65.2c0-0.1,0-0.2,0.1-0.3c0.1-0.1,0.2-0.2,0.4-0.2c0.3,0,0.5,0.2,0.5,0.5l-2.7,66.1l-23.6,2.7l2-34c0.1-0.6,0.2-1.2,0.4-1.8
				c2.7-9.3,15-25.2,22.4-34.2c2.1-2.6,3.5-4,3.6-4.1l0.1-0.2H253.1z"/>
			<path d="M178.7,152.3l-0.6,2.1c0,0.1-0.1,0.2-0.2,0.3C178.1,153.9,178.4,153.1,178.7,152.3z"/>
			<path d="M177.1,267.7v-2.9c0-0.3,0.2-0.5,0.5-0.5c0.1,0,0.1,0,0.1,0c0,0.1,0.1,0.2,0.1,0.3C177.8,265.6,177.5,266.6,177.1,267.7z
				"/>
			<path class="st1" d="M177.6,154.8c0.1,0,0.2,0,0.2-0.1c-4.6,13.5-6.1,30.8-6.4,46.9c-0.2,0.1-0.3,0.3-0.3,0.5
				c0,0.2,0.1,0.3,0.3,0.4c-0.2,16.9,1.1,32.2,1.8,39.5c-0.2,0.1-0.3,0.2-0.3,0.5c0,8.6-15.4,15.6-34.2,15.6
				c-18.9,0-34.2-7-34.2-15.6c0-0.1-0.1-0.3-0.1-0.4c0.7-7.3,2-22.8,1.7-39.9c-0.2-16.1-1.8-33.7-6.5-47.3l38.8-0.1L177.6,154.8z
				 M164.3,187.6v-12c0-4.7-3.8-8.5-8.5-8.5h-35c-4.7,0-8.5,3.8-8.5,8.5v12c0,4.7,3.8,8.5,8.5,8.5h35
				C160.5,196.1,164.3,192.3,164.3,187.6z"/>
			<path class="st1" d="M177.1,267.7v32.9c0,8.6-17.3,15.6-38.5,15.6s-38.5-7-38.5-15.6v-31.4c4.7,8.7,22.6,11.9,38.3,11.9
				C157.5,281.1,173.6,275.3,177.1,267.7z"/>
			<path d="M239.4,49.7c0.2,0,12.2,2.3,9.8,17.2c-0.3,0-0.7,0-1,0.1c0,0,0,0,0,0c2.4-14.1-8.4-16.2-8.8-16.2l-24.5,0L202.5,119
				l-0.1,0.1l-21.8,31.1c-1.2,2.8-2.3,5.9-3.2,9.2c-3.5,12.6-4.8,27.9-5,42.1l-0.8,0.1c-0.1,0-0.1,0-0.2,0.1
				c0.2-16,1.8-33.4,6.4-46.9c0.1,0,0.2-0.2,0.2-0.3l0.6-2.1c0.3-0.9,0.7-1.8,1.1-2.6l21.8-31.1L214,49.7h1.1c0,0.3,0.2,0.5,0.5,0.5
				s0.5-0.2,0.5-0.5h11c0,0.3,0.2,0.5,0.5,0.5s0.5-0.2,0.5-0.5H239.4z"/>
			<path d="M173.4,241.9c0.3,0,0.5,0.2,0.5,0.5c0,0.8-0.1,1.6-0.4,2.3c-0.1-0.7-0.2-1.7-0.3-2.8
				C173.3,241.9,173.3,241.9,173.4,241.9z"/>
			<path d="M171.6,201.5l0.8-0.1c0,0.3,0,0.7,0,1l-0.7,0.1c0,0,0,0-0.1,0c-0.1,0-0.2,0-0.2-0.1c0-0.3,0-0.6,0-0.9
				C171.5,201.6,171.5,201.6,171.6,201.5z"/>
			<path d="M174.7,246.3c14.7,36.8,24.1,45.7,24.2,45.7l0.2,0.2v0.2V313c9.4,4.4,13.9,3.9,16,2.7c1.8-1,2-2.6,2-2.7l0.1-0.5l0.5,0
				c10.8,0.8,14.6-1,15.9-2.7c0.9-1.2,0.5-2.4,0.5-2.4l-0.1-0.2l9.2-17.1c0.3,0.1,0.6,0.2,1,0.3l-9.1,16.9c0.1,0.5,0.2,1.8-0.8,3.1
				c-2.1,2.7-7.6,3.8-16.4,3.1c-0.2,0.7-0.8,2-2.4,2.9c-1.1,0.6-2.5,0.9-4.2,0.9c-3.3,0-7.7-1.2-13-3.8l-0.3-0.1v-21.1
				c-1.3-1.3-10.3-11.1-24.3-46l0-0.1c0-0.1-0.1-0.7-0.2-1.7v0c0.2-0.8,0.4-1.6,0.4-2.3c0-0.3-0.2-0.5-0.5-0.5c-0.1,0-0.1,0-0.2,0
				c-0.7-7.3-2-22.6-1.8-39.5c0.1,0.1,0.2,0.1,0.2,0.1c0,0,0,0,0.1,0l0.7-0.1C172.2,225.2,174.6,245,174.7,246.3z"/>
			<path d="M171.4,201.6c0,0.3,0,0.6,0,0.9c-0.1-0.1-0.2-0.2-0.3-0.4C171.1,201.9,171.2,201.7,171.4,201.6z"/>
			<path d="M178.9,99.3c0.1,0.3-0.1,0.5-0.4,0.6c0,0-0.1,0-0.1,0c-0.2,0-0.5-0.2-0.5-0.4l-10.3-57.2c-0.1-0.3,0.1-0.5,0.4-0.6
				c0.3,0,0.5,0.1,0.6,0.4L178.9,99.3z"/>
			<path class="st1" d="M166.2,24.9v10.3h-55.7V24.9c0-1.4,1.1-2.5,2.5-2.5h50.7C165,22.4,166.2,23.5,166.2,24.9z"/>
			<path d="M189.7,395.7v-6.2h-31.7v6.2H189.7z M190.7,389v7.2c0,0.3-0.2,0.5-0.5,0.5h-32.7c-0.3,0-0.5-0.2-0.5-0.5V389
				c0-0.3,0.2-0.5,0.5-0.5h32.7C190.4,388.5,190.7,388.7,190.7,389z"/>
			<path d="M154.2,395.7v-6.2h-31.7v6.2H154.2z M155.2,389v7.2c0,0.3-0.2,0.5-0.5,0.5H122c-0.3,0-0.5-0.2-0.5-0.5V389
				c0-0.3,0.2-0.5,0.5-0.5h32.7C155,388.5,155.2,388.7,155.2,389z"/>
			<path d="M163.3,187.6v-12c0-4.1-3.4-7.5-7.5-7.5h-35c-4.1,0-7.5,3.4-7.5,7.5v12c0,4.1,3.4,7.5,7.5,7.5h35
				C160,195.1,163.3,191.8,163.3,187.6z M164.3,175.6v12c0,4.7-3.8,8.5-8.5,8.5h-35c-4.7,0-8.5-3.8-8.5-8.5v-12
				c0-4.7,3.8-8.5,8.5-8.5h35C160.5,167.1,164.3,170.9,164.3,175.6z"/>
			<path d="M177.1,264.7v2.9c-3.5,7.6-19.5,13.4-38.7,13.4c-15.6,0-33.5-3.2-38.3-11.9v-2.9c1.1,5.2,6.9,8.4,11.9,10.1
				c6.8,2.4,16.2,3.7,26.4,3.7c21.2,0,38.5-7,38.5-15.6c0-0.3,0.2-0.5,0.5-0.5c0.2,0,0.3,0.1,0.4,0.2c0,0-0.1,0-0.1,0
				C177.3,264.2,177.1,264.5,177.1,264.7z"/>
			<path d="M166.2,35.2V24.9c0-1.4-1.1-2.5-2.5-2.5H113c-1.4,0-2.5,1.1-2.5,2.5v10.3H166.2z M163.7,21.4c1.9,0,3.5,1.6,3.5,3.5v10.8
				c0,0.3-0.2,0.5-0.5,0.5H110c-0.3,0-0.5-0.2-0.5-0.5V24.9c0-1.9,1.6-3.5,3.5-3.5H163.7z"/>
			<path class="st1" d="M108.7,41.7c-0.3,0-0.5,0.1-0.6,0.4L97.8,99.3c-0.1,0.3,0.1,0.5,0.4,0.6c0,0,0.1,0,0.1,0
				c0.2,0,0.4-0.2,0.5-0.4l10.3-57.2C109.1,42,108.9,41.8,108.7,41.7z M168.6,42.1c0-0.3-0.3-0.5-0.6-0.4c-0.3,0-0.4,0.3-0.4,0.6
				l10.3,57.2c0,0.2,0.3,0.4,0.5,0.4c0,0,0.1,0,0.1,0c0.3-0.1,0.4-0.3,0.4-0.6L168.6,42.1z M166.3,38.7l16.6,9.7l3,57.4l-47.6-8
				c-0.1,0-0.1,0-0.2,0l-47.6,8l2.9-57.2l16.8-9.9H166.3z"/>
			<path d="M105.4,201.5c0.3,0,0.5,0.3,0.4,0.6c0,0.2-0.2,0.4-0.5,0.4c0,0,0,0-0.1,0l-0.3,0c0-0.3,0-0.7,0-1L105.4,201.5z"/>
			<path d="M105,201.5c0,0.3,0,0.7,0,1l-78.9-8.2v-1L105,201.5z"/>
			<path d="M173.2,241.9c0.1,1.1,0.2,2.1,0.3,2.8v0c-2.4,8-17.1,14.2-34.9,14.2c-17.4,0-31.8-5.9-34.7-13.7c0.1-0.8,0.2-1.8,0.3-3.2
				c0.1,0.1,0.1,0.2,0.1,0.4c0,8.6,15.4,15.6,34.2,15.6c18.9,0,34.2-7,34.2-15.6C172.9,242.2,173,242,173.2,241.9z"/>
			<path d="M104.3,242c-0.1,1.4-0.2,2.4-0.3,3.2c-0.3-0.9-0.5-1.9-0.5-2.8c0,0,0-0.1,0-0.1c0.1-0.2,0.2-0.4,0.5-0.4
				C104.1,241.9,104.2,242,104.3,242z"/>
			<path d="M106,202.1c0.3,17.1-1,32.7-1.7,39.9c-0.1-0.1-0.2-0.1-0.4-0.1c-0.2,0-0.4,0.2-0.5,0.4l-0.2,0c0.7-7.1,2-22.6,1.7-39.8
				l0.3,0c0,0,0,0,0.1,0c0.2,0,0.5-0.2,0.5-0.4H106z"/>
			<path d="M176.2,333c0.3,0,0.5,0.2,0.5,0.5c0,0,0,0.1,0,0.1c-0.1,0.2-0.2,0.4-0.5,0.4h-75.8c-0.2,0-0.4-0.2-0.5-0.4
				c0,0,0-0.1,0-0.1c0-0.3,0.2-0.5,0.5-0.5H176.2z"/>
			<path class="st1" d="M176.2,334c0.2,0,0.4-0.2,0.5-0.4l2.3,0.4l-3.1,18.1H101l-3.3-18.1l2.2-0.4c0.1,0.2,0.2,0.4,0.5,0.4H176.2z"
				/>
			<path d="M100.1,264.7v1.6c-0.1-0.6-0.2-1.2-0.2-1.8c0-0.1,0-0.1,0-0.2C100,264.4,100.1,264.6,100.1,264.7z"/>
			<path d="M178.1,264.7v35.9c0,9.3-17.4,16.6-39.5,16.6s-39.5-7.3-39.5-16.6v-34.1c0.2,1,0.5,1.9,1,2.8v31.4
				c0,8.6,17.3,15.6,38.5,15.6s38.5-7,38.5-15.6v-32.9c0.5-1,0.7-2.1,0.7-3.1c0-0.1,0-0.2-0.1-0.3
				C177.9,264.3,178.1,264.5,178.1,264.7z"/>
			<path class="st1" d="M180.2,327.1l-1.2,7l-2.3-0.4c0,0,0-0.1,0-0.1c0-0.3-0.2-0.5-0.5-0.5h-75.8c-0.3,0-0.5,0.2-0.5,0.5
				c0,0,0,0.1,0,0.1l-2.2,0.4l-1.3-7c4.2-0.6,32.2-4.3,41.9-4.3C148.1,322.7,176.1,326.5,180.2,327.1z"/>
			<path d="M99.9,264.5c0,0.6,0.1,1.2,0.2,1.8v2.9c-0.5-0.9-0.8-1.8-1-2.8v-1.7c0-0.3,0.2-0.5,0.5-0.5c0.1,0,0.2,0,0.3,0.1
				C99.9,264.4,99.9,264.4,99.9,264.5z"/>
			<path d="M99.8,264.3c-0.1,0-0.2-0.1-0.3-0.1c-0.3,0-0.5,0.2-0.5,0.5v1.7c-0.1-0.6-0.2-1.3-0.2-1.9c0-0.3,0.2-0.5,0.5-0.5
				C99.6,264,99.7,264.1,99.8,264.3z"/>
			<path d="M99.5,154.8c4.6,13.6,6.2,31.2,6.5,47.3h-0.1c0-0.3-0.2-0.5-0.4-0.6l-0.4,0c-0.3-16.1-1.9-33.6-6.6-46.9l0.2-0.1
				c0.1,0.2,0.3,0.4,0.5,0.4H99.5z"/>
			<path d="M108.7,41.7c0.3,0,0.5,0.3,0.4,0.6L98.7,99.5c0,0.2-0.2,0.4-0.5,0.4c0,0-0.1,0-0.1,0c-0.3-0.1-0.4-0.3-0.4-0.6l10.3-57.2
				C108.1,41.8,108.4,41.7,108.7,41.7z"/>
			<path d="M180.2,327.1c-4.1-0.6-32.2-4.3-41.9-4.3c-9.7,0-37.7,3.8-41.9,4.3l1.3,7l3.3,18.1h74.9L179,334L180.2,327.1z
				 M181.2,326.3c0.1,0.1,0.1,0.2,0.1,0.4l-4.5,26c0,0.2-0.2,0.4-0.5,0.4h-75.7c-0.2,0-0.5-0.2-0.5-0.4l-4.8-26c0-0.1,0-0.3,0.1-0.4
				c0.1-0.1,0.2-0.2,0.3-0.2c0.3,0,32-4.4,42.6-4.4c10.5,0,42.2,4.4,42.6,4.4C181,326.2,181.2,326.2,181.2,326.3z"/>
			<path d="M97.5,149.7c0.7,1.6,1.4,3.3,2,5.1h-0.4c-0.2,0-0.4-0.1-0.5-0.4l-1.6-5.6L97.5,149.7z"/>
			<path d="M185.9,105.8l-3-57.4l-16.6-9.7h-56l-16.8,9.9l-2.9,57.2l47.6-8c0.1,0,0.1,0,0.2,0L185.9,105.8z M186.4,106.9l-48.1-8.1
				l-48.1,8.1c0,0-0.1,0-0.1,0c-0.1,0-0.2,0-0.3-0.1c-0.1-0.1-0.2-0.2-0.2-0.4l3-58.2c0-0.3,0.2-0.5,0.5-0.5l16.9-9.9
				c0.1,0,0.2-0.1,0.3-0.1h56.3c0.1,0,0.2,0,0.3,0.1l17,9.9c0.1,0.1,0.2,0.2,0.2,0.4l3,58.3c0,0.2-0.1,0.3-0.2,0.4
				C186.7,106.9,186.6,106.9,186.4,106.9C186.4,106.9,186.4,106.9,186.4,106.9z"/>
			<path d="M188.1,117.1c0,0.1,0,0.2,0.1,0.3l-0.2,0.1l-49.6-7.5l-49.6,7.5l-0.3-0.1c0.1-0.1,0.1-0.2,0.1-0.3v-0.6l49.7-7.5
				c0.1,0,0.1,0,0.1,0l49.7,7.5V117.1z"/>
			<path d="M189,117.3l-10.3,35c-0.3,0.8-0.6,1.6-0.9,2.4c-0.1,0.1-0.1,0.1-0.2,0.1l-39.2-0.1l-38.8,0.1c-0.6-1.8-1.3-3.5-2-5.1
				l-0.6-0.8l-9.3-31.6c0.1,0.2,0.2,0.3,0.5,0.3c0.1,0,0.3-0.1,0.4-0.2l0.3,0.1l10.7,36.3l38.8-0.1l38.9,0.1l10.7-36.3l0.2-0.1
				c0.1,0.1,0.2,0.2,0.4,0.2C188.8,117.6,188.9,117.5,189,117.3z"/>
			<path d="M88.6,116.5v0.6c0,0.1-0.1,0.3-0.1,0.3c-0.1,0.1-0.2,0.2-0.4,0.2c-0.2,0-0.4-0.1-0.5-0.3c0-0.1,0-0.1,0-0.2
				c0-0.1,0-0.2,0.1-0.3c0.1-0.1,0.2-0.2,0.3-0.2L88.6,116.5z"/>
			<path d="M189.1,110.1v7c0-0.1,0-0.2-0.1-0.3c-0.1-0.1-0.2-0.2-0.4-0.2l-0.6-0.1v-6l-49.7-7.5l-49.7,7.5v6l-0.6,0.1
				c-0.1,0-0.3,0.1-0.3,0.2c-0.1,0.1-0.1,0.2-0.1,0.3v-7c0-0.2,0.2-0.5,0.4-0.5l2.4-0.4l47.8-7.2c0.1,0,0.1,0,0.1,0l47.7,7.2
				l2.5,0.4C188.9,109.6,189.1,109.9,189.1,110.1z"/>
			<path d="M118.7,395.7v-6.2H87v6.2H118.7z M119.7,389v7.2c0,0.3-0.2,0.5-0.5,0.5H86.5c-0.3,0-0.5-0.2-0.5-0.5V389
				c0-0.3,0.2-0.5,0.5-0.5h32.7C119.5,388.5,119.7,388.7,119.7,389z"/>
			<path d="M191.1,7.4c0-1.2-2.1-2.6-5-2.6H163c-0.2,0-0.4-0.2-0.5-0.4c-0.2-0.8-1-1.6-2.1-1.6h-43.8c-1,0-1.9,0.8-2.1,1.6
				c0,0.2-0.2,0.4-0.5,0.4H91c-2.9,0-4.9,1.4-4.9,2.6v10.4h105V7.4z M186,3.7c3.3,0,6,1.6,6,3.6v10.9c0,0.3-0.2,0.5-0.5,0.5h-106
				c-0.3,0-0.5-0.2-0.5-0.5V7.4c0-2,2.6-3.6,5.9-3.6h22.7c0.4-1,1.5-2,2.9-2h43.8c1.4,0,2.5,1,2.9,2H186z"/>
			<path class="st1" d="M119.7,396.2V389c0-0.3-0.2-0.5-0.5-0.5H86.5c-0.3,0-0.5,0.2-0.5,0.5v7.2c0,0.3,0.2,0.5,0.5,0.5h32.7
				C119.5,396.7,119.7,396.4,119.7,396.2z M155.2,396.2V389c0-0.3-0.2-0.5-0.5-0.5H122c-0.3,0-0.5,0.2-0.5,0.5v7.2
				c0,0.3,0.2,0.5,0.5,0.5h32.7C155,396.7,155.2,396.4,155.2,396.2z M190.2,396.7c0.3,0,0.5-0.2,0.5-0.5V389c0-0.3-0.2-0.5-0.5-0.5
				h-32.7c-0.3,0-0.5,0.2-0.5,0.5v7.2c0,0.3,0.2,0.5,0.5,0.5H190.2z M193,386.2v13H83.6v-13H193z"/>
			<path d="M193.5,384.9c0.3,0,0.5,0.2,0.5,0.5v0.3c0,0.3-0.2,0.5-0.5,0.5H193v-0.3H83.6v0.3h-0.5c-0.3,0-0.5-0.2-0.5-0.5v-0.3
				c0-0.3,0.2-0.5,0.5-0.5h0.5v0.3H193v-0.3H193.5z"/>
			<path d="M194,378.6v6.8c0-0.3-0.2-0.5-0.5-0.5H193v-5.8H83.6v5.8h-0.5c-0.3,0-0.5,0.2-0.5,0.5v-6.8c0-0.3,0.2-0.5,0.5-0.5h110.4
				C193.8,378.1,194,378.4,194,378.6z"/>
			<path d="M194,385.7v14c0,0.3-0.2,0.5-0.5,0.5H83.1c-0.3,0-0.5-0.2-0.5-0.5v-14c0,0.3,0.2,0.5,0.5,0.5h0.5v13H193v-13h0.5
				C193.8,386.2,194,386,194,385.7z"/>
			<path d="M189.3,356.4l10,5.2c-0.1,0-0.1,0-0.2,0h-2l-8.1-4.2H87.7l-8.1,4.2h-2c-0.1,0-0.1,0-0.2,0l10-5.2c0.1,0,0.2-0.1,0.2-0.1
				h101.5C189.2,356.4,189.2,356.4,189.3,356.4z"/>
			<path d="M199.1,361.6c0.1,0,0.1,0,0.2,0l0,0c0,0,0,0,0,0c0,0,0.1,0,0.1,0.1c0,0,0,0,0,0c0,0,0,0,0.1,0.1c0,0,0,0.1,0.1,0.1
				c0,0,0,0.1,0,0.1v0c0,0,0,0.1,0,0.1c-0.1,0.2-0.3,0.4-0.5,0.4h-0.5H78.1h-0.5c-0.2,0-0.4-0.2-0.5-0.4c0,0,0-0.1,0-0.1
				c0-0.2,0.1-0.4,0.3-0.4l0,0c0.1,0,0.1,0,0.2,0h2H197H199.1z"/>
			<path d="M199.6,362.1v8.2c0,0.3-0.2,0.5-0.5,0.5H77.6c-0.3,0-0.5-0.2-0.5-0.5v-8.2c0,0,0,0.1,0,0.1c0.1,0.2,0.2,0.4,0.5,0.4h0.5
				v7.2h120.5v-7.2h0.5c0.2,0,0.4-0.2,0.5-0.4C199.6,362.2,199.6,362.2,199.6,362.1z"/>
			<path class="st0" d="M64.4,182.7c0.8,0,1.8,2,1.8,4.7s-1,4.7-1.8,4.7s-1.8-2-1.8-4.7S63.5,182.7,64.4,182.7z"/>
			<path class="st0" d="M64.4,243.8c0.8,0,1.8,2,1.8,4.7s-1,4.7-1.8,4.7s-1.8-2-1.8-4.7S63.5,243.8,64.4,243.8z"/>
			<path class="st1" d="M64.4,254.1c1.6,0,2.8-2.4,2.8-5.7s-1.2-5.7-2.8-5.7s-2.8,2.4-2.8,5.7S62.8,254.1,64.4,254.1z M75.9,261.1
				c-1,0.2-4.1-1.1-5.7-2c-18.5-8.4-31.5-15.4-38.7-20.8c-5.5-4.2-5.4-5.8-5.4-5.8s0,0,0,0l0-0.1v-38.2l78.9,8.2
				c0.2,17.2-1,32.7-1.7,39.8c-0.2,2.3-0.4,3.7-0.4,4c-14.7,36.8-23.5,45.7-23.6,45.8l-0.2,0.1V313c-9.3,4.3-14,3.9-16.2,2.7
				c-2-1-2.3-2.6-2.3-2.7l-0.1-0.4l-0.5,0c-10.8,0.8-14.8-1-16.3-2.8c-1-1.2-0.8-2.3-0.7-2.4l0-0.2l-9.2-17.1
				c9-2.8,15.6-11.2,15.6-21.2c0-12.2-9.9-22.2-22.2-22.2c-1.4,0-2.8,0.1-4.2,0.4v-53.6H25c0,0.1,0,0.2,0.1,0.3v38.3
				c-0.2,1.1,0.9,7.9,44.7,27.8c0.5,0.2,4.6,2.3,6.3,2.1v8.6l6.5,2.2l16.2-28.1c0.6-0.6,1-1.1,1.1-1.1l0.1-0.2v-36.7l-24-2.1v56.3
				C76,261.1,76,261.1,75.9,261.1z"/>
			<path d="M63,49.7l0,0.2c-0.1,0.2-0.2,0.3-0.5,0.3c-0.3,0-0.5-0.2-0.5-0.5H63z"/>
			<path d="M66.2,187.4c0-2.7-1-4.7-1.8-4.7s-1.8,2-1.8,4.7s1,4.7,1.8,4.7S66.2,190,66.2,187.4z M64.4,181.7c1.6,0,2.8,2.4,2.8,5.7
				S66,193,64.4,193s-2.8-2.4-2.8-5.7S62.8,181.7,64.4,181.7z"/>
			<path d="M66.2,248.4c0-2.7-1-4.7-1.8-4.7s-1.8,2-1.8,4.7s1,4.7,1.8,4.7S66.2,251.1,66.2,248.4z M64.4,242.8
				c1.6,0,2.8,2.4,2.8,5.7s-1.2,5.7-2.8,5.7s-2.8-2.4-2.8-5.7S62.8,242.8,64.4,242.8z"/>
			<path class="st0" d="M62.1,40.7v9.1h-11V39.3C56.8,37.8,61.1,40.1,62.1,40.7z"/>
			<path d="M63.1,40.1v9.6c0,0.1,0,0.1,0,0.2l0-0.2h-0.9v-9.1c-1-0.6-5.3-2.9-11-1.4v10.5l-1,0v0V38.5l0.4-0.1
				c7.1-2,12.2,1.4,12.4,1.6L63.1,40.1z"/>
			<path d="M50.1,49.7l1,0c0,0.3-0.2,0.5-0.5,0.5S50.1,50,50.1,49.7z"/>
			<path class="st0" d="M48.4,269.1c0,9.6-6.4,17.7-15.2,20.3c0,0,0,0,0,0c-0.1,0-0.2,0-0.3,0c0,0-0.1,0.1-0.1,0.1
				c-1.7,0.5-3.6,0.7-5.5,0.7c-11.7,0-21.2-9.5-21.2-21.2c0-10.1,7.1-18.6,16.6-20.7c1.5-0.3,3-0.5,4.6-0.5
				C38.9,247.9,48.4,257.4,48.4,269.1z M42.2,269.1c0-4.4-1.7-8.3-4.8-11.1c-0.2-0.2-0.5-0.2-0.7,0c-0.2,0.2-0.2,0.5,0,0.7
				c2.9,2.6,4.4,6.2,4.4,10.3c0,4.1-1.6,7.8-4.4,10.3c-0.2,0.2-0.2,0.5,0,0.7c0.1,0.1,0.2,0.2,0.4,0.2c0.1,0,0.2,0,0.3-0.1
				C40.5,277.4,42.2,273.5,42.2,269.1z M17.4,258.9c0.2-0.2,0.2-0.5,0-0.7c-0.2-0.2-0.5-0.2-0.7,0c-3,2.7-4.6,6.5-4.6,10.9
				c0,4.5,1.6,8.3,4.6,10.9c0.1,0.1,0.2,0.1,0.3,0.1c0.1,0,0.3-0.1,0.4-0.2c0.2-0.2,0.2-0.5,0-0.7c-2.8-2.5-4.2-6-4.2-10.2
				S14.6,261.3,17.4,258.9z"/>
			<path class="st0" d="M27.3,67.9c11.7,0,21.2,9.5,21.2,21.2c0,11.7-9.5,21.2-21.2,21.2c-11.7,0-21.2-9.5-21.2-21.2
				C6.1,77.4,15.6,67.9,27.3,67.9z M42.2,89.1c0-4.4-1.7-8.3-4.8-11.1c-0.2-0.2-0.5-0.2-0.7,0c-0.2,0.2-0.2,0.5,0,0.7
				c2.9,2.6,4.4,6.2,4.4,10.3c0,4.1-1.6,7.8-4.4,10.3c-0.2,0.2-0.2,0.5,0,0.7c0.1,0.1,0.2,0.2,0.4,0.2c0.1,0,0.2,0,0.3-0.1
				C40.5,97.4,42.2,93.5,42.2,89.1z M17.4,78.9c0.2-0.2,0.2-0.5,0-0.7c-0.2-0.2-0.5-0.2-0.7,0c-3,2.7-4.6,6.4-4.6,10.9
				c0,4.5,1.6,8.3,4.6,10.9c0.1,0.1,0.2,0.1,0.3,0.1c0.1,0,0.3-0.1,0.4-0.2c0.2-0.2,0.2-0.5,0-0.7c-2.8-2.5-4.2-6-4.2-10.2
				C13.2,84.9,14.6,81.3,17.4,78.9z"/>
			<path d="M62.8,315.8c2.2,1.2,6.9,1.6,16.2-2.7v-20.9l0.2-0.1c0.1-0.1,8.9-8.9,23.6-45.8c0-0.3,0.2-1.7,0.4-4l0.2,0
				c0,0,0,0.1,0,0.1c0,1,0.2,1.9,0.5,2.8c-0.1,0.7-0.1,1.2-0.1,1.2l0,0.1c-14,35-22.5,44.7-23.7,46v21.1l-0.3,0.1
				c-5.3,2.5-9.7,3.8-13.1,3.8c-1.7,0-3.1-0.3-4.3-0.9c-1.8-0.9-2.5-2.3-2.7-3c-8.9,0.6-14.5-0.4-16.8-3.2c-1.1-1.3-1-2.5-1-3
				l-9.1-16.9c0.3-0.1,0.7-0.2,1-0.3l9.2,17.1l0,0.2c0,0.1-0.3,1.2,0.7,2.4c1.5,1.7,5.5,3.6,16.3,2.8l0.5,0l0.1,0.4
				C60.5,313.1,60.9,314.7,62.8,315.8z"/>
			<path d="M37.4,78c3.1,2.8,4.8,6.7,4.8,11.1c0,4.4-1.7,8.3-4.8,11.1c-0.1,0.1-0.2,0.1-0.3,0.1c-0.1,0-0.3-0.1-0.4-0.2
				c-0.2-0.2-0.2-0.5,0-0.7c2.9-2.6,4.4-6.2,4.4-10.3c0-4.1-1.6-7.8-4.4-10.3c-0.2-0.2-0.2-0.5,0-0.7C36.9,77.9,37.2,77.8,37.4,78z"
				/>
			<path d="M37.4,258c3.1,2.8,4.8,6.7,4.8,11.1c0,4.4-1.7,8.3-4.8,11.1c-0.1,0.1-0.2,0.1-0.3,0.1c-0.1,0-0.3-0.1-0.4-0.2
				c-0.2-0.2-0.2-0.5,0-0.7c2.9-2.6,4.4-6.2,4.4-10.3c0-4.1-1.6-7.8-4.4-10.3c-0.2-0.2-0.2-0.5,0-0.7
				C36.9,257.9,37.2,257.8,37.4,258z"/>
			<path d="M33.2,289.4c-0.1,0-0.3,0.1-0.5,0.1c0,0,0.1-0.1,0.1-0.1C33,289.4,33.1,289.4,33.2,289.4z"/>
			<path d="M32.6,290.1c-0.1-0.2-0.1-0.4,0.1-0.6c0.2,0,0.3-0.1,0.5-0.1c0,0,0,0,0,0c0.1,0,0.2,0.1,0.3,0.2l0.3,0.6
				c-0.3,0.1-0.6,0.2-1,0.3L32.6,290.1z"/>
			<path d="M63,49.9l12.6,68.7L97,148.9l1.6,5.6l-0.2,0.1c-0.5-1.5-1.1-3-1.7-4.4l-22-31.1l0-0.1L62.2,50.7H37.6
				c-0.4,0.1-11.1,2.2-8.8,16.2c0,0,0,0,0,0c-0.3,0-0.7-0.1-1-0.1c-2.4-14.9,9.6-17.2,9.7-17.2h12.6c0,0.3,0.2,0.5,0.5,0.5
				s0.5-0.2,0.5-0.5h11c0,0.3,0.2,0.5,0.5,0.5C62.8,50.2,63,50.1,63,49.9z"/>
			<path d="M27.8,66.9c0.3,0,0.7,0,1,0.1c0,0.3-0.1,0.5-0.4,0.5c-0.3,0.1-0.5-0.1-0.6-0.4C27.8,67.1,27.8,67,27.8,66.9z"/>
			<path d="M27.3,246.9c12.2,0,22.2,9.9,22.2,22.2c0,9.9-6.6,18.4-15.6,21.2l-0.3-0.6c-0.1-0.1-0.2-0.2-0.3-0.2
				c8.8-2.6,15.2-10.7,15.2-20.3c0-11.7-9.5-21.2-21.2-21.2c-1.6,0-3.1,0.2-4.6,0.5l0-0.2c0.2-0.1,0.4-0.2,0.4-0.5v-0.4
				C24.4,247.1,25.8,246.9,27.3,246.9z"/>
			<path d="M27.3,111.1c0,0.1,0.1,0.1,0.1,0.2c0,0-0.1,0-0.1,0c-0.3,0-0.6,0-0.8,0l0.2-0.2C26.8,110.9,27.1,110.9,27.3,111.1z"/>
			<path d="M26.1,193.3v1l-0.6-0.1c-0.1,0-0.3-0.1-0.4-0.2v-0.6c0.1-0.1,0.3-0.2,0.5-0.2L26.1,193.3z"/>
			<path d="M70.9,121.9c0.1,0.1,1.4,1.5,3.6,4.1c7.9,9.6,21.3,27,22.8,35.9l2,34.1l-23.6-2.7L73,127.2c0-0.3,0.2-0.5,0.5-0.5
				c0.1,0,0.3,0,0.4,0.1c0.1,0.1,0.2,0.2,0.2,0.3l2.7,65.2l21.6,2.5L96.3,162c-1.4-8.6-14.6-25.7-22.4-35.2
				c-0.1-0.1-0.1-0.1-0.2-0.2c-1.7-2.1-2.9-3.4-3.3-3.8H26.1v70.5l-0.5-0.1c-0.2,0-0.4,0.1-0.5,0.2v-71.7h45.7L70.9,121.9z"/>
			<path d="M96.1,247.5c-5,4.8-13.7,12.7-19.1,14.4v8.1l5,1.8L96.1,247.5z M99.1,242.9v-35l-22-1.9v54.9
				c6.2-2.2,17.3-12.9,20.9-16.6l0.6-1.1C98.7,243,98.9,242.9,99.1,242.9z M70.2,259.2c1.7,0.9,4.7,2.1,5.7,2c0.1,0,0.1,0,0.2,0
				v-56.3l24,2.1v36.7l-0.1,0.2c-0.1,0.1-0.5,0.5-1.1,1.1L82.6,273l-6.5-2.2v-8.6c-1.7,0.3-5.9-1.8-6.3-2.1
				c-43.8-19.9-44.9-26.6-44.7-27.8V194c0.1,0.1,0.2,0.2,0.4,0.2l0.6,0.1v38.2l0,0.1c0,0,0,0,0,0s-0.1,1.6,5.4,5.8
				C38.6,243.8,51.7,250.8,70.2,259.2z"/>
			<path d="M25.1,193.4v0.6c-0.1-0.1-0.1-0.2-0.1-0.3c0,0,0,0,0-0.1C25,193.6,25,193.5,25.1,193.4z"/>
			<path class="st1" d="M70.4,122.7c0.4,0.4,1.6,1.8,3.3,3.8c0,0.1,0.1,0.1,0.2,0.2l0,0c-0.1-0.1-0.2-0.2-0.4-0.1
				c-0.3,0-0.5,0.2-0.5,0.5l2.7,66.1l23.6,2.7l-2-34.1c-1.5-8.9-14.9-26.3-22.8-35.9c-2.1-2.6-3.5-4-3.6-4.1l-0.1-0.2H25.1v71.7
				c-0.1,0.1-0.1,0.1-0.1,0.2c0,0,0,0,0,0.1h-1.9v-78.1l4.2-3.8c0.2-0.2,0.2-0.4,0.1-0.6c12.2-0.1,22-10,22-22.2
				c0-11.7-9.1-21.3-20.6-22.1c0,0,0,0,0,0c-2.4-14.1,8.4-16.2,8.8-16.2h24.6l12.5,68.2l0,0.1l22,31.1c0.6,1.4,1.2,2.9,1.7,4.4
				c4.7,13.4,6.3,30.8,6.6,46.9l-78.9-8.2v-70.5H70.4z M67.2,187.4c0-3.2-1.2-5.7-2.8-5.7s-2.8,2.4-2.8,5.7s1.2,5.7,2.8,5.7
				S67.2,190.6,67.2,187.4z"/>
			<path d="M27.3,111.2c0,0,0.1,0,0.1,0c0.1,0.2,0,0.4-0.1,0.6l-4.2,3.8v78.1v53.6c-0.3,0.1-0.7,0.1-1,0.2V115.2l4.4-3.9
				C26.7,111.2,27,111.2,27.3,111.2z"/>
			<path d="M22.6,248.2c-0.3,0-0.5-0.2-0.5-0.5v-0.2c0.3-0.1,0.7-0.2,1-0.2v0.4c0,0.2-0.2,0.4-0.4,0.5
				C22.6,248.2,22.6,248.2,22.6,248.2z"/>
			<path d="M17.4,99.2c0.2,0.2,0.2,0.5,0,0.7c-0.1,0.1-0.2,0.2-0.4,0.2c-0.1,0-0.2,0-0.3-0.1c-3-2.7-4.6-6.4-4.6-10.9
				c0-4.5,1.6-8.3,4.6-10.9c0.2-0.2,0.5-0.2,0.7,0c0.2,0.2,0.2,0.5,0,0.7c-2.8,2.5-4.2,6-4.2,10.2C13.2,93.2,14.6,96.8,17.4,99.2z"
				/>
			<path d="M17.4,279.2c0.2,0.2,0.2,0.5,0,0.7c-0.1,0.1-0.2,0.2-0.4,0.2c-0.1,0-0.2,0-0.3-0.1c-3-2.7-4.6-6.4-4.6-10.9
				c0-4.5,1.6-8.3,4.6-10.9c0.2-0.2,0.5-0.2,0.7,0c0.2,0.2,0.2,0.5,0,0.7c-2.8,2.5-4.2,6-4.2,10.2S14.6,276.8,17.4,279.2z"/>
			<path d="M48.4,89.1c0-11.7-9.5-21.2-21.2-21.2c-11.7,0-21.2,9.5-21.2,21.2c0,11.7,9.5,21.2,21.2,21.2
				C38.9,110.2,48.4,100.8,48.4,89.1z M28.8,67c11.5,0.8,20.6,10.4,20.6,22.1c0,12.2-9.9,22.1-22,22.2c0-0.1,0-0.1-0.1-0.2
				c-0.2-0.2-0.5-0.2-0.7,0l-0.2,0.2C14.6,110.8,5.1,101,5.1,89.1c0-12.2,9.9-22.2,22.2-22.2c0.2,0,0.4,0,0.5,0c0,0.1,0,0.1,0,0.2
				c0,0.3,0.3,0.5,0.6,0.4C28.7,67.5,28.9,67.3,28.8,67z"/>
			<path d="M32.6,290.1l0.2,0.4c-1.8,0.5-3.7,0.7-5.6,0.7c-12.2,0-22.2-9.9-22.2-22.2c0-10.4,7.2-19.2,17-21.5v0.2
				c0,0.3,0.2,0.5,0.5,0.5c0,0,0.1,0,0.1,0l0,0.2c-9.5,2.1-16.6,10.6-16.6,20.7c0,11.7,9.5,21.2,21.2,21.2c1.9,0,3.7-0.2,5.5-0.7
				C32.6,289.7,32.5,289.9,32.6,290.1z"/>
		</g>
		<g>
		</g>
	</g>
</g>
</svg>
